<svg width="16" height="16" viewBox="0 0 16 16" fill="none" xmlns="http://www.w3.org/2000/svg">
<path fill-rule="evenodd" clip-rule="evenodd" d="M12.2841 13.7118C12.6747 14.1023 13.3136 14.0965 13.7042 13.706C14.0947 13.3154 14.1005 12.6765 13.71 12.286L9.42473 8.00085L13.7099 3.71581C14.1004 3.32529 14.0946 2.68633 13.7041 2.29581C13.3136 1.90529 12.6746 1.89948 12.2841 2.29L7.99887 6.57504L3.71736 2.29366C3.32683 1.90315 2.68784 1.90896 2.29731 2.29947C1.90678 2.68999 1.90097 3.32896 2.2915 3.71947L6.57302 8.00085L2.29142 12.2823C1.90089 12.6728 1.9067 13.3118 2.29723 13.7023C2.68776 14.0928 3.32675 14.0986 3.71728 13.7081L7.99887 9.42666L12.2841 13.7118Z" fill="#F7F7F7"/>
</svg>
